<svg width="1920" height="1080" viewBox="0 0 1920 1080" fill="none" xmlns="http://www.w3.org/2000/svg">
<g clip-path="url(#clip0_220_2)">
<rect width="1920" height="1080" fill="white"/>
<rect x="749" width="1171" height="239" fill="#F7DFD7"/>
<path d="M0 0H1937.53V540V810L1955.55 878L1969.72 926.392C1973.23 938.411 1978.33 949.912 1984.86 960.596L2015.38 1010.5L2068 1080H0V0Z" fill="#F7DFD7"/>
<path d="M-2 714.5L64.7675 813.211C103.29 870.163 164.91 907.291 233.263 914.734L350.5 927.5L520.525 970.703C529.102 972.882 538.006 973.462 546.793 972.413L642.477 960.988C681.283 956.354 720.558 957.433 759.052 964.189L879.06 985.253C904.312 989.685 930.261 987.945 954.695 980.182L1076.67 941.425C1105.28 932.337 1135.9 931.748 1164.83 939.729L1193.53 947.647C1202.8 950.204 1212.37 951.5 1221.99 951.5H1324.88C1328.62 951.5 1332.36 951.213 1336.05 950.64L1457.42 931.849C1475.74 929.012 1494.49 931.598 1511.36 939.289L1549.58 956.711C1573.55 967.642 1601.19 967.116 1624.74 955.28L1680 927.5L1786 881.5L1921 826V1083.67L1169.3 1084L830.716 1083.67H591.654H326.585L151.04 1084L-2 1083.67V714.5Z" fill="#2A3942"/>
<path d="M0 0H1920V465L1858 457.5L1807 449H1740H1675.5L1584.72 453.276C1555.31 454.661 1528.66 470.988 1514.07 496.552L1497 526.457C1486.27 545.266 1464.64 555.026 1443.44 550.633L1442.28 550.393C1420.51 545.885 1397.93 547.458 1377 554.94L1351.68 563.992C1325.75 573.261 1298.42 578 1270.89 578H1194H1099.75C1081.55 578 1063.64 582.601 1047.69 591.377L947.5 646.5L825.033 728.788C802.194 744.135 773.731 748.579 747.301 740.927L607.209 700.365C591.482 695.811 575.19 693.5 558.817 693.5H381.839C358.681 693.5 335.925 687.453 315.822 675.959L144.5 578L0 476V0Z" fill="#2A3942"/>
<path d="M1892 828.5L1920 807V882V983L1826.51 915.4C1824.45 913.908 1824.28 910.892 1826.18 909.187L1847.75 889.75L1864.74 873.126C1868.9 869.052 1872.66 864.579 1875.95 859.77L1880.12 853.673C1882.7 849.902 1884.87 845.868 1886.61 841.64L1892 828.5Z" fill="#2A3942"/>
<path d="M1803.28 955.421C1803.39 954.167 1804.62 953.329 1805.83 953.682L1930 990V1080H1820.5L1805.31 1056.3C1798.95 1046.38 1796.08 1034.63 1797.15 1022.9L1803.28 955.421Z" fill="#2A3942"/>
</g>
<defs>
<clipPath id="clip0_220_2">
<rect width="1920" height="1080" fill="white"/>
</clipPath>
</defs>
</svg>
